<svg viewBox="0 0 24 24" xmlns="http://www.w3.org/2000/svg">
	<style>
		path { fill: #000000; }
		@media (prefers-color-scheme: dark) {
			path { fill: #ffffff; }
		}
	</style>
	
	<g fill="context-fill">
		<path d="m17.5 7h-15c-1.381 0-2.5 1.119-2.5 2.5v12c0 1.381 1.119 2.5 2.5 2.5h15c1.381 0 2.5-1.119 2.5-2.5v-12c0-1.381-1.119-2.5-2.5-2.5zm-.5 15h-14c-.551 0-1-.448-1-1v-9h16v9c0 .552-.449 1-1 1z"/>
	</g>

	<g fill="context-fill">
		<path d="m21.5 0h-15c-1.38 0-2.5 1.12-2.5 2.5v2.5h18v11.95c1.14-.23 2-1.24 2-2.45v-12c0-1.38-1.12-2.5-2.5-2.5z"/>
	</g>
</svg>